# xmcd
#
# Track frame offsets:
#	300
#	16285
#	29100
#	45202
#	60082
#	71662
#	89427
#	105700
#	120895
#	137745
#	153490
#	165707
#	178292
#	192342
#	207207
#
# Disc length: 3000 seconds
#
# Revision: 0
# Processed by: cddbd v1.5.1PL0 Copyright (c) Steve Scherf et al.
# Submitted via: audiograbber 1.83.01
#
DISCID=c90bb40f
DTITLE=Various Artist - Stax Gold
DYEAR=1998
DGENRE=Soul
TTITLE0=The Staple Singers - Respect Yourself
TTITLE1=Johnnie Taylor - Who's Making Love
TTITLE2=The Temprees - Dedicated to the One I Love
TTITLE3=Isaac Hayes - Theme from Shaft
TTITLE4=Jean Knight - Mr. Big Stuff
TTITLE5=Shirley Brown - Woman to Woman
TTITLE6=The Dramatics - What You See Is What You Get
TTITLE7=Frederick Knight - I've Been Lonely for So Long
TTITLE8=Albert King - I'll Play the Blues for You
TTITLE9=Johnnie Taylor - Cheaper to Keep Her
TTITLE10=Judy Clay and William Bell - Private Number
TTITLE11=The Bar-Kays - Holy Ghost
TTITLE12=The Emotions - Show me How
TTITLE13=Booker T. and the MGs - Time is Tight
TTITLE14=Otis Redding - Try a Little Tenderness
EXTD=
EXTT0=
EXTT1=
EXTT2=
EXTT3=
EXTT4=
EXTT5=
EXTT6=
EXTT7=
EXTT8=
EXTT9=
EXTT10=
EXTT11=
EXTT12=
EXTT13=
EXTT14=
PLAYORDER=
